<svg xmlns="http://www.w3.org/2000/svg" style="display: none;">
  
    <symbol id="icon-camera-streamline-video" viewBox="0 0 512 512">
      <path d="m277 267l-149 0c-24 0-43 19-43 42c0 24 19 43 43 43c24 0 43-19 43-43c0-7-3-15-6-21l76 0c-4 6-6 14-6 21c0 24 19 43 42 43c24 0 43-19 43-43c0-23-19-42-43-42z m-128 42c0 12-9 22-21 22c-12 0-21-10-21-22c0-11 9-21 21-21c12 0 21 10 21 21z m128 22c-11 0-21-10-21-22c0-11 10-21 21-21c12 0 22 10 22 21c0 12-10 22-22 22z m225-108c-6-4-14-5-21-2l-97 40l0-58c0-18-14-32-32-32l-11 0l0-54c0-6 5-10 11-10l34 0c4 12 16 21 30 21l64 0c18 0 32-14 32-32c0-18-14-32-32-32l-64 0c-14 0-26 9-30 21l-34 0c-18 0-32 15-32 32l0 54l-64 0l0-32c0-18-14-32-32-32l-213 0c-6 0-11 4-11 10c0 6 5 11 11 11l213 0c6 0 11 5 11 11l0 32l-182 0c-17 0-32 14-32 32l0 192c0 17 15 32 32 32l299 0c18 0 32-15 32-32l0-38l97 41c3 1 6 2 9 2c4 0 8-2 12-4c6-4 10-11 10-19l0-136c0-7-4-14-10-18z m-86-138l64 0c6 0 11 5 11 11c0 6-5 11-11 11l-64 0c-6 0-11-5-11-11c0-6 5-11 11-11z m-64 320l-299 0c-6 0-10-4-10-10l0-192c0-6 4-11 10-11l299 0c6 0 11 5 11 11l0 74c0 0 0 0 0 0l0 64c0 0 0 0 0 0l0 54c0 6-5 10-11 10z m139-28l-1 1l-106-44l0-50l106-44l-5-9l6 10z"/>
    </symbol>
  
    <symbol id="icon-computer-network-streamline" viewBox="0 0 512 512">
      <path d="m21 181l0-10l256 0l0-139c0-18-13-32-30-32l-217 0c-16 0-30 14-30 32l0 149c0 18 14 32 30 32l98 0l0-21l-98 0c-5 0-9-5-9-11z m0-149c0-6 4-11 9-11l217 0c5 0 9 5 9 11l0 117l-235 0z m32 203c-6 0-10 4-10 10c0 6 4 11 10 11l75 0l0-21z m414-43l-273 0c-25 0-45 22-45 49l0 179c0 27 20 49 45 49l126 0l0 22l-85 0c-6 0-11 4-11 10c0 6 5 11 11 11l188 0c6 0 11-5 11-11c0-6-5-10-11-10l-82 0l0-22l126 0c25 0 45-22 45-49l0-179c0-27-20-49-45-49z m-273 21l273 0c13 0 24 13 24 28l0 143l-320 0l0-143c0-15 10-28 23-28z m273 235l-273 0c-13 0-23-12-23-28l0-15l320 0l0 15c0 16-11 28-24 28z m-126-21c0 6-4 10-10 10c-6 0-11-4-11-10c0-6 5-11 11-11c6 0 10 5 10 11z"/>
    </symbol>
  
    <symbol id="icon-browser-streamline-window" viewBox="0 0 512 512">
      <path d="m459 64l-406 0c-29 0-53 24-53 53l0 299c0 29 24 53 53 53l406 0c29 0 53-24 53-53l0-299c0-29-24-53-53-53z m-406 21l406 0c17 0 32 15 32 32l0 54l-470 0l0-54c0-17 15-32 32-32z m406 363l-406 0c-17 0-32-14-32-32l0-224l470 0l0 224c0 18-15 32-32 32z m-352-320c0 12-10 21-22 21c-11 0-21-9-21-21c0-12 10-21 21-21c12 0 22 9 22 21z m64 0c0 12-10 21-22 21c-11 0-21-9-21-21c0-12 10-21 21-21c12 0 22 9 22 21z m64 0c0 12-10 21-22 21c-11 0-21-9-21-21c0-12 10-21 21-21c12 0 22 9 22 21z"/>
    </symbol>
  
</svg>
